HIERARCHY
ROOT Hips
{
	OFFSET 0.000000 88.474243 0.000000
	CHANNELS 6 Xposition Yposition Zposition Zrotation Yrotation Xrotation 
	JOINT Hips_Spine
	{
		OFFSET 0.000000 0.000000 0.000000
		CHANNELS 3 Zrotation Yrotation Xrotation
		JOINT Spine
		{
			OFFSET 0.005100 8.711998 -0.691000
			CHANNELS 3 Zrotation Yrotation Xrotation
			JOINT Spine1
			{
				OFFSET -0.009200 8.660301 -1.275000
				CHANNELS 3 Zrotation Yrotation Xrotation
				JOINT Spine2
				{
					OFFSET 0.006300 9.852501 -1.857000
					CHANNELS 3 Zrotation Yrotation Xrotation
					JOINT Spine2_Neck
					{
						OFFSET 0.000000 0.000000 0.000000
						CHANNELS 3 Zrotation Yrotation Xrotation
						JOINT Neck
						{
							OFFSET 0.016300 11.420799 -0.263300
							CHANNELS 3 Zrotation Yrotation Xrotation
							End Site #name: Head
							{
								OFFSET -0.019200 9.262405 2.362500
							}
						}
					}
					JOINT Spine2_LeftShoulder
					{
						OFFSET 0.000000 0.000000 0.000000
						CHANNELS 3 Zrotation Yrotation Xrotation
						JOINT LeftShoulder
						{
							OFFSET 5.616900 6.732201 -0.345700
							CHANNELS 3 Zrotation Yrotation Xrotation
							JOINT LeftArm
							{
								OFFSET 10.664888 -0.183372 -2.440700
								CHANNELS 3 Zrotation Yrotation Xrotation
								JOINT LeftForeArm
								{
									OFFSET 27.459126 0.000000 0.000000
									CHANNELS 3 Zrotation Yrotation Xrotation
									End Site #name: LeftHand
									{
										OFFSET 21.306858 0.000000 0.000000
									}
								}
							}
						}
					}
					JOINT Spine2_RightShoulder
					{
						OFFSET 0.000000 0.000000 0.000000
						CHANNELS 3 Zrotation Yrotation Xrotation
						JOINT RightShoulder
						{
							OFFSET -5.580300 6.737503 -0.344400
							CHANNELS 3 Zrotation Yrotation Xrotation
							JOINT RightArm
							{
								OFFSET -10.679335 -0.188484 -2.383900
								CHANNELS 3 Zrotation Yrotation Xrotation
								JOINT RightForeArm
								{
									OFFSET -27.503529 0.000000 0.000000
									CHANNELS 3 Zrotation Yrotation Xrotation
									End Site #name: RightHand
									{
										OFFSET -21.306808 0.000000 0.000000
									}
								}
							}
						}
					}
				}
			}
		}
	}
	JOINT Hips_LeftUpLeg
	{
		OFFSET 0.000000 0.000000 0.000000
		CHANNELS 3 Zrotation Yrotation Xrotation
		JOINT LeftUpLeg
		{
			OFFSET 6.857700 -6.739601 0.312100
			CHANNELS 3 Zrotation Yrotation Xrotation
			JOINT LeftLeg
			{
				OFFSET -0.367590 -34.731552 -4.572400
				CHANNELS 3 Zrotation Yrotation Xrotation
				End Site #name: LeftFoot
				{
					OFFSET 0.367590 -34.656704 -6.067400
				}
			}
		}
	}
	JOINT Hips_RightUpLeg
	{
		OFFSET 0.000000 0.000000 0.000000
		CHANNELS 3 Zrotation Yrotation Xrotation
		JOINT RightUpLeg
		{
			OFFSET -6.876100 -6.733299 0.301000
			CHANNELS 3 Zrotation Yrotation Xrotation
			JOINT RightLeg
			{
				OFFSET 0.347353 -34.795158 -4.515900
				CHANNELS 3 Zrotation Yrotation Xrotation
				End Site #name: RightFoot
				{
					OFFSET -0.347353 -34.589367 -6.070300
				}
			}
		}
	}
}
MOTION
Frames: 11
Frame Time: 0.041667
-0.037705 0.146568 -1.251308 -4.889413 0.231551 -2.050640 0.000000 -0.000000 0.000000 3.100640 1.028085 19.886617 0.244697 0.338380 3.529360 0.000000 0.000000 0.000000 0.490408 0.316596 2.723809 1.300733 -0.303691 9.295040 0.594952 0.445022 2.982545 -5.539683 2.579961 -1.465203 -67.038509 0.147553 6.289602 0.082710 -32.208661 0.933595 0.206261 0.519618 3.244877 4.896873 -5.265257 0.081883 69.204121 8.907154 7.720002 3.509090 88.732891 3.626360 -0.000000 0.000000 0.000000 8.845790 11.081417 -53.863962 6.925297 -3.500648 51.170355 0.000000 0.000000 0.000000 -4.392284 -6.392677 -49.718526 0.611154 -0.999185 56.719953 
-0.039149 0.150162 -1.283824 -4.880263 0.224052 -2.052900 0.000000 -0.000000 0.000000 3.102019 1.025364 19.886307 0.249350 0.337020 3.539103 0.000000 0.000000 0.000000 0.497270 0.313486 2.735422 1.304733 -0.304424 9.291412 0.601551 0.442878 2.990383 -5.525306 2.560971 -1.463071 -67.028649 0.127411 6.225342 0.084883 -32.120262 0.932674 0.210688 0.519849 3.257643 4.922215 -5.257808 0.075891 69.314915 9.044278 7.873008 2.011898 87.742949 2.131393 -0.000000 0.000000 0.000000 8.848932 11.084866 -53.863139 6.929225 -3.499955 51.167894 0.000000 0.000000 0.000000 -4.384414 -6.395608 -49.716270 0.610323 -1.002629 56.722842 
-0.040048 0.153503 -1.315820 -4.872266 0.216872 -2.054257 0.000000 -0.000000 0.000000 3.104380 1.028443 19.877572 0.255184 0.335376 3.546725 0.000000 0.000000 0.000000 0.505906 0.310311 2.745672 1.307419 -0.304258 9.281860 0.609508 0.441146 2.998851 -5.520451 2.523609 -1.457595 -67.025205 0.103104 6.163746 0.087673 -31.977457 0.928740 0.216646 0.520533 3.271597 4.969263 -5.236286 0.071487 69.472702 9.247741 8.112265 1.294298 86.388225 1.417344 -0.000000 0.000000 0.000000 8.854119 11.089294 -53.860483 6.932507 -3.500907 51.164150 0.000000 0.000000 0.000000 -4.376036 -6.399147 -49.712089 0.612242 -1.004342 56.725012 
-0.040340 0.156553 -1.347401 -4.867021 0.209928 -2.054042 0.000000 -0.000000 0.000000 3.106896 1.030941 19.865288 0.262258 0.334577 3.552985 0.000000 0.000000 0.000000 0.516138 0.307121 2.757030 1.309988 -0.302556 9.266840 0.620159 0.440028 3.007076 -5.521649 2.477745 -1.449731 -67.009416 0.062036 6.058721 0.088585 -31.838837 0.928300 0.223086 0.522245 3.285731 5.060224 -5.203827 0.070118 69.663836 9.513115 8.410717 0.899121 84.619978 1.026852 -0.000000 0.000000 0.000000 8.857626 11.093129 -53.863571 6.937810 -3.501079 51.159441 0.000000 0.000000 0.000000 -4.369181 -6.399935 -49.707365 0.611658 -1.007332 56.724254 
-0.039961 0.159339 -1.378632 -4.862888 0.204723 -2.053055 0.000000 -0.000000 0.000000 3.106625 1.037441 19.853631 0.270204 0.333701 3.559061 0.000000 0.000000 0.000000 0.528215 0.303878 2.767988 1.310097 -0.299064 9.248421 0.633255 0.439337 3.016379 -5.527405 2.415914 -1.439182 -66.990043 0.025233 5.953804 0.089288 -31.748910 0.926690 0.231115 0.523887 3.300199 5.176364 -5.192260 0.070097 69.880787 9.831917 8.778361 0.638360 82.125550 0.770511 -0.000000 0.000000 0.000000 8.860446 11.097195 -53.864655 6.945263 -3.500250 51.150430 0.000000 -0.000000 0.000000 -4.359168 -6.400676 -49.700643 0.611467 -1.008484 56.714986 
-0.038856 0.161947 -1.409552 -4.859424 0.198543 -2.049314 0.000000 -0.000000 0.000000 3.105537 1.045556 19.839072 0.279536 0.332701 3.564008 0.000000 0.000000 0.000000 0.542366 0.300168 2.779434 1.309565 -0.294953 9.227217 0.648039 0.438435 3.024668 -5.534063 2.351293 -1.426713 -66.966792 -0.021073 5.799864 0.090963 -31.627914 0.923491 0.240403 0.526239 3.315884 5.321479 -5.185129 0.069759 70.116294 10.102030 9.194365 0.478341 79.189470 0.616508 -0.000000 0.000000 0.000000 8.864943 11.105062 -53.860134 6.951672 -3.496991 51.139300 0.000000 -0.000000 0.000000 -4.350539 -6.401768 -49.693210 0.610488 -1.010875 56.703915 
-0.036966 0.164384 -1.440251 -4.857205 0.192829 -2.044368 0.000000 -0.000000 0.000000 3.104055 1.056264 19.822976 0.289996 0.332093 3.566839 0.000000 0.000000 0.000000 0.558095 0.295919 2.790753 1.307987 -0.289106 9.200607 0.661535 0.437307 3.036613 -5.552504 2.264824 -1.410608 -66.941429 -0.079651 5.685566 0.091119 -31.491567 0.922158 0.250959 0.529088 3.332766 5.488716 -5.169367 0.070325 70.363897 10.362833 9.671548 0.366726 75.826176 0.511026 -0.000000 0.000000 0.000000 8.869976 11.108068 -53.860310 6.957642 -3.495787 51.132448 0.000000 -0.000000 0.000000 -4.343619 -6.401890 -49.688253 0.609177 -1.012855 56.697981 
-0.034259 0.166598 -1.470815 -4.856918 0.187651 -2.040935 0.000000 -0.000000 0.000000 3.104093 1.067060 19.805259 0.301531 0.331497 3.568811 0.000000 0.000000 0.000000 0.575350 0.291973 2.802986 1.304238 -0.281920 9.171340 0.676030 0.435780 3.047894 -5.573979 2.173715 -1.391418 -66.905980 -0.136604 5.549854 0.091538 -31.365750 0.919543 0.262262 0.532853 3.350997 5.684440 -5.158442 0.070697 70.628531 10.665986 10.207806 0.280056 71.993190 0.432884 -0.000000 0.000000 0.000000 8.873634 11.115038 -53.861819 6.965457 -3.494284 51.123045 0.000000 -0.000000 0.000000 -4.333609 -6.400520 -49.676800 0.608850 -1.015633 56.682735 
-0.030731 0.168623 -1.501261 -4.859171 0.184210 -2.036465 0.000000 -0.000000 0.000000 3.103374 1.081086 19.779293 0.314308 0.331052 3.569597 0.000000 0.000000 0.000000 0.594140 0.288207 2.815191 1.300583 -0.273036 9.136949 0.692333 0.434967 3.060175 -5.596755 2.082593 -1.373594 -66.871698 -0.201457 5.420020 0.092618 -31.192878 0.916333 0.276065 0.536988 3.370138 5.914329 -5.139246 0.070812 70.922586 10.994691 10.836315 0.216041 67.630927 0.377586 -0.000000 0.000000 0.000000 8.875575 11.121031 -53.863194 6.972052 -3.492435 51.112755 0.000000 -0.000000 0.000000 -4.327463 -6.400428 -49.667149 0.607365 -1.018160 56.668839 
-0.026376 0.170561 -1.531765 -4.862220 0.182915 -2.032453 0.000000 -0.000000 0.000000 3.108347 1.096310 19.754754 0.327253 0.331459 3.564460 0.000000 0.000000 0.000000 0.613469 0.284372 2.822873 1.298061 -0.264614 9.096488 0.708894 0.435054 3.069060 -5.620460 1.987787 -1.353650 -66.835657 -0.257797 5.276761 0.091510 -31.013006 0.915976 0.299348 0.535738 3.387116 6.174449 -5.123202 0.072740 71.260192 11.365590 11.526220 0.154378 63.060718 0.285784 -0.000000 0.000000 0.000000 8.881343 11.128524 -53.866526 6.980058 -3.487445 51.103570 0.000000 -0.000000 0.000000 -4.321267 -6.401423 -49.662072 0.608072 -1.019206 56.658463 
-0.021144 0.172457 -1.562300 -4.867148 0.181753 -2.028677 0.000000 -0.000000 0.000000 3.119892 1.110223 19.726957 0.339835 0.331584 3.556596 0.000000 0.000000 0.000000 0.633666 0.281268 2.826349 1.295592 -0.254507 9.050606 0.725231 0.435527 3.074825 -5.651899 1.888395 -1.332966 -66.806471 -0.321043 5.141712 0.092261 -30.814694 0.913861 0.325534 0.533623 3.403107 6.475164 -5.110326 0.074456 71.561973 11.811617 12.504761 0.121057 58.965338 0.233843 -0.000000 0.000000 0.000000 8.884780 11.133051 -53.875473 6.987469 -3.483902 51.101119 0.000000 -0.000000 0.000000 -4.314666 -6.400322 -49.648956 0.605820 -1.022179 56.640596 
